<svg height="261.28" viewBox="0 0 80 261.28" width="80" xmlns="http://www.w3.org/2000/svg" xmlns:xlink="http://www.w3.org/1999/xlink"><clipPath id="a"><path d="m0 0h80v261.28h-80z"/></clipPath><g clip-path="url(#a)"><g fill="#161615"><path d="m191.427 56.04h-27.189a7.515 7.515 0 0 0 1.969 3.976 8.352 8.352 0 0 0 6.21 2.5 8.644 8.644 0 0 0 4.809-1.4 6.3 6.3 0 0 0 2.272-2.575l10.869 2.759a21.256 21.256 0 0 1 -5.794 7.346 19.47 19.47 0 0 1 -12.344 4.279 21.978 21.978 0 0 1 -8.274-1.59 19.659 19.659 0 0 1 -6.759-4.43q-5.15-5.262-5.15-13.556a20.992 20.992 0 0 1 1.591-8.142 17.764 17.764 0 0 1 4.468-6.437q5.149-4.658 13.481-4.657a21.62 21.62 0 0 1 8.653 1.723 17.89 17.89 0 0 1 6.683 4.9q4.544 5.416 4.544 13.67-.001.536-.039 1.634zm-12-6.248a7.04 7.04 0 0 0 -1.969-3.824 8.382 8.382 0 0 0 -5.831-2.083 7.661 7.661 0 0 0 -5.491 2.045 7.116 7.116 0 0 0 -2.007 3.862z" transform="translate(-151.939 -21.231)"/><path d="m221.3 35.554h11.776v4.09a11.259 11.259 0 0 1 3.257-3.9 10.423 10.423 0 0 1 5.945-1.628 12.391 12.391 0 0 1 9.164 3.484 9.623 9.623 0 0 1 2.726 5 35.483 35.483 0 0 1 .568 6.854v22.035h-11.773v-21.925a6.614 6.614 0 0 0 -.681-3.295 4.467 4.467 0 0 0 -4.2-2.386 4.566 4.566 0 0 0 -4.165 2.31 6.548 6.548 0 0 0 -.834 3.521v21.775h-11.783z" transform="translate(-175.378 -21.231)"/><path d="m165.5 99.612v12.165q-.461-.042-.8-.042a3.024 3.024 0 0 0 -2.433 1.258 3.8 3.8 0 0 0 -.839 2.518 3.293 3.293 0 0 0 .755 2.223 2.429 2.429 0 0 0 1.846.881 2.623 2.623 0 0 0 2.14-1.049 10.043 10.043 0 0 0 1.51-3.482q1.887-7.048 4.446-10.613 3.231-4.572 9.438-4.572a12.175 12.175 0 0 1 10.361 5.117q3.146 4.237 3.146 10.99 0 8.852-5.285 13.172a13.257 13.257 0 0 1 -8.138 2.894v-12.416a7.863 7.863 0 0 0 2.685-.8 3.127 3.127 0 0 0 1.385-2.853 2.835 2.835 0 0 0 -.756-2.1 2.758 2.758 0 0 0 -2.055-.923 3.185 3.185 0 0 0 -2.642 1.846 27.947 27.947 0 0 0 -1.846 4.782q-2.055 6.333-5.075 9.27a11.175 11.175 0 0 1 -8.054 3.146 11.656 11.656 0 0 1 -10.4-5.453 19.186 19.186 0 0 1 -2.81-10.613q0-9.018 5.872-13.213a13.328 13.328 0 0 1 7.549-2.133z" transform="translate(-151.948 -43.157)"/><path d="m244.968 100.648v-3.286h9.921v30.276h-9.921v-3.382a12.981 12.981 0 0 1 -10.273 4.595 13.809 13.809 0 0 1 -11.421-5.36 16.367 16.367 0 0 1 -3.414-10.5 18.994 18.994 0 0 1 1.324-7.05 15.705 15.705 0 0 1 3.716-5.641 14.787 14.787 0 0 1 10.624-4.116 11.808 11.808 0 0 1 6.062 1.563 15.858 15.858 0 0 1 3.382 2.901zm-7.4 3.765a6.275 6.275 0 0 0 -5.392 2.775 9.351 9.351 0 0 0 -1.723 5.551 8.584 8.584 0 0 0 2.361 6.253 6.624 6.624 0 0 0 4.849 2.042 6.74 6.74 0 0 0 5.519-2.744 9.2 9.2 0 0 0 1.946-5.838 8.757 8.757 0 0 0 -1.532-5.072 6.8 6.8 0 0 0 -6.03-2.967z" transform="translate(-174.89 -42.237)"/><path d="m185.067 222.068h25.27q2.481 0 3.284-1.274a6.465 6.465 0 0 0 .871-3.821v-2.144h17.226v16.019q0 6.435-3.084 9.25t-10.121 2.816h-33.446v6.5h-17.293v-6.5h-15.752v-20.846h15.752v-7.239h17.293z" transform="translate(-151.931 -82.392)"/><path d="m198.674 180.98h-25.274q-2.48 0-3.284 1.274a6.465 6.465 0 0 0 -.871 3.821v2.145h-17.223v-16.02q0-6.434 3.084-9.25t10.121-2.816h33.447v-6.5h17.293v6.5h15.752v20.846h-15.752v7.239h-17.293z" transform="translate(-151.931 -61.681)"/><path d="m153.407 342.22v2.872h-1.227v-5.046h1.227l1.841 2.835v-2.835h1.227v5.046h-1.227z" transform="translate(-151.984 -124.77)"/><path d="m162.724 344.36h-1.79l-.222.732h-1.312l1.668-5.046h1.555l1.66 5.046h-1.346zm-.307-.99-.591-1.878-.588 1.878z" transform="translate(-154.429 -124.77)"/><path d="m168.769 341.037v4.055h-1.228v-4.055h-1.164v-.99h3.553v.99z" transform="translate(-156.789 -124.77)"/><path d="m173.7 340.047v5.046h-1.227v-5.046z" transform="translate(-158.852 -124.77)"/><path d="m178.2 339.89a2.594 2.594 0 0 1 1.05.216 2.557 2.557 0 0 1 .869.623 2.488 2.488 0 0 1 .673 1.749 2.7 2.7 0 0 1 -.237 1.112 2.656 2.656 0 0 1 -.666.91 2.551 2.551 0 0 1 -1.741.64 2.783 2.783 0 0 1 -1.121-.233 2.654 2.654 0 0 1 -.919-.658 2.486 2.486 0 0 1 -.658-1.73 2.542 2.542 0 0 1 .22-1.037 2.762 2.762 0 0 1 .627-.886 2.659 2.659 0 0 1 1.903-.706zm-.1 1.138a1.338 1.338 0 0 0 -1.046.484 1.481 1.481 0 0 0 -.359 1.01 1.433 1.433 0 0 0 .433 1.072 1.372 1.372 0 0 0 .994.414 1.357 1.357 0 0 0 1.05-.474 1.469 1.469 0 0 0 .373-1.027 1.443 1.443 0 0 0 -.466-1.105 1.39 1.39 0 0 0 -.979-.373z" transform="translate(-159.858 -124.717)"/><path d="m185.865 342.22v2.872h-1.227v-5.046h1.227l1.84 2.835v-2.835h1.228v5.046h-1.228z" transform="translate(-162.969 -124.77)"/><path d="m195.182 344.36h-1.789l-.222.732h-1.309l1.667-5.046h1.556l1.66 5.046h-1.345zm-.307-.99-.591-1.878-.587 1.878z" transform="translate(-165.414 -124.77)"/><path d="m201.2 344.1h1.641v.991h-2.871v-5.046h1.23z" transform="translate(-168.158 -124.77)"/><path d="m206.142 341.037v1.031h1.664v.99h-1.664v1.042h1.664v.991h-2.891v-5.046h2.891v.99z" transform="translate(-169.832 -124.77)"/><path d="m213.52 343.511h1.2v.089a.372.372 0 0 0 .111.267.659.659 0 0 0 .488.192.572.572 0 0 0 .4-.14.344.344 0 0 0 .122-.263.377.377 0 0 0 -.2-.322 2.581 2.581 0 0 0 -.525-.226 3.528 3.528 0 0 1 -1.1-.587 1.3 1.3 0 0 1 -.44-1.046 1.444 1.444 0 0 1 .5-1.165 1.869 1.869 0 0 1 1.246-.414 1.843 1.843 0 0 1 1.213.4 1.785 1.785 0 0 1 .591 1.193h-1.25a.506.506 0 0 0 -.562-.506.518.518 0 0 0 -.4.14.366.366 0 0 0 -.1.259.418.418 0 0 0 .233.367 4.8 4.8 0 0 0 .577.247 3.467 3.467 0 0 1 1.083.569 1.309 1.309 0 0 1 .425 1.013 1.4 1.4 0 0 1 -.643 1.249 2.1 2.1 0 0 1 -1.168.318 2.137 2.137 0 0 1 -.949-.2 1.461 1.461 0 0 1 -.634-.578 1.616 1.616 0 0 1 -.218-.856z" transform="translate(-172.744 -124.719)"/><path d="m221.184 340.047v2.939a1.384 1.384 0 0 0 .17.78.716.716 0 0 0 .625.292.851.851 0 0 0 .393-.093.613.613 0 0 0 .269-.243 1.616 1.616 0 0 0 .126-.736v-2.939h1.227v2.886a2.382 2.382 0 0 1 -.525 1.675 1.672 1.672 0 0 1 -.641.432 2.27 2.27 0 0 1 -.838.152 2.33 2.33 0 0 1 -.881-.165 1.8 1.8 0 0 1 -.678-.464 1.619 1.619 0 0 1 -.385-.736 4.222 4.222 0 0 1 -.089-.9v-2.886z" transform="translate(-174.923 -124.77)"/><path d="m228.621 343.451v1.641h-1.227v-5.046h1.737a2.029 2.029 0 0 1 1.408.451 1.544 1.544 0 0 1 .47 1.205 1.932 1.932 0 0 1 -.152.769 1.53 1.53 0 0 1 -.425.584 1.845 1.845 0 0 1 -1.231.4zm0-1.006h.34a1 1 0 0 0 .44-.085.625.625 0 0 0 .362-.606.652.652 0 0 0 -.285-.58.78.78 0 0 0 -.436-.118h-.421z" transform="translate(-177.439 -124.77)"/><path d="m234.7 340.273v1.027h1.663v.99h-1.663v1.043h1.663v.991h-2.89v-5.046h2.89v.99zm.406-2.484h1.139l-1.113 1.013h-.757z" transform="translate(-179.495 -124.006)"/><path d="m240.288 343.141v1.952h-1.227v-5.046h1.639a2.252 2.252 0 0 1 1.563.447 1.561 1.561 0 0 1 .466 1.2 1.489 1.489 0 0 1 -.983 1.542l1.116 1.86h-1.467zm0-.691h.392a.9.9 0 0 0 .539-.144.631.631 0 0 0 .263-.547.672.672 0 0 0 -.721-.7h-.473z" transform="translate(-181.388 -124.77)"/><path d="m247.105 340.047v5.046h-1.227v-5.046z" transform="translate(-183.695 -124.77)"/><path d="m250.066 341.037v1.031h1.664v.99h-1.664v1.042h1.664v.991h-2.891v-5.046h2.891v.99z" transform="translate(-184.697 -124.77)"/><path d="m255.542 340.047v2.939a1.377 1.377 0 0 0 .171.78.714.714 0 0 0 .624.292.854.854 0 0 0 .394-.093.616.616 0 0 0 .268-.243 1.607 1.607 0 0 0 .126-.736v-2.939h1.227v2.886a2.385 2.385 0 0 1 -.525 1.675 1.668 1.668 0 0 1 -.642.432 2.269 2.269 0 0 1 -.837.152 2.332 2.332 0 0 1 -.882-.165 1.8 1.8 0 0 1 -.678-.464 1.62 1.62 0 0 1 -.385-.736 4.226 4.226 0 0 1 -.089-.9v-2.886z" transform="translate(-186.551 -124.77)"/><path d="m262.979 343.141v1.952h-1.227v-5.046h1.638a2.252 2.252 0 0 1 1.563.447 1.561 1.561 0 0 1 .466 1.2 1.489 1.489 0 0 1 -.983 1.542l1.116 1.86h-1.467zm0-.691h.392a.9.9 0 0 0 .539-.144.631.631 0 0 0 .263-.547.672.672 0 0 0 -.721-.7h-.473z" transform="translate(-189.068 -124.77)"/><path d="m269.45 341.037v1.031h1.663v.99h-1.663v1.042h1.663v.991h-2.89v-5.046h2.89v.99z" transform="translate(-191.258 -124.77)"/><path d="m152.015 356.635v-4.141h1.209a2.681 2.681 0 0 1 1.172.21 1.819 1.819 0 0 1 .8.789 2.182 2.182 0 0 1 .239 1.031 2.32 2.32 0 0 1 -.337 1.243 1.909 1.909 0 0 1 -1.759.868zm1.006-3.334v2.509h.155a1.206 1.206 0 0 0 .816-.277 1.19 1.19 0 0 0 .312-.429 1.355 1.355 0 0 0 .112-.548 1.408 1.408 0 0 0 -.194-.722 1.017 1.017 0 0 0 -.5-.431 1.307 1.307 0 0 0 -.506-.1z" transform="translate(-151.928 -128.983)"/><path d="m158.821 353.307v.846h1.365v.813h-1.365v.855h1.365v.813h-2.371v-4.141h2.371v.813z" transform="translate(-153.891 -128.983)"/><path d="m162.059 355.337h.986v.073a.3.3 0 0 0 .091.219.541.541 0 0 0 .4.157.469.469 0 0 0 .328-.115.282.282 0 0 0 .1-.216.307.307 0 0 0 -.167-.263 2.059 2.059 0 0 0 -.431-.185 2.9 2.9 0 0 1 -.9-.482 1.071 1.071 0 0 1 -.361-.859 1.185 1.185 0 0 1 .413-.955 1.532 1.532 0 0 1 1.022-.339 1.512 1.512 0 0 1 .994.324 1.461 1.461 0 0 1 .486.98h-1.025a.415.415 0 0 0 -.46-.415.428.428 0 0 0 -.328.115.3.3 0 0 0 -.085.212.342.342 0 0 0 .191.3 3.777 3.777 0 0 0 .473.2 2.855 2.855 0 0 1 .889.467 1.075 1.075 0 0 1 .349.832 1.147 1.147 0 0 1 -.528 1.025 1.715 1.715 0 0 1 -.959.261 1.756 1.756 0 0 1 -.778-.165 1.2 1.2 0 0 1 -.52-.475 1.324 1.324 0 0 1 -.18-.696z" transform="translate(-155.328 -128.941)"/><path d="m172.381 356.034h-1.468l-.182.6h-1.074l1.368-4.141h1.275l1.362 4.141h-1.1zm-.252-.813-.485-1.541-.482 1.541z" transform="translate(-157.899 -128.983)"/><path d="m177.316 355.033v1.6h-1.007v-4.141h1.344a1.85 1.85 0 0 1 1.283.367 1.282 1.282 0 0 1 .382.983 1.222 1.222 0 0 1 -.807 1.264l.916 1.526h-1.2zm0-.568h.322a.742.742 0 0 0 .443-.118.518.518 0 0 0 .215-.449.551.551 0 0 0 -.591-.576h-.388z" transform="translate(-160.15 -128.983)"/><path d="m183.287 353.307v3.328h-1.007v-3.328h-.955v-.813h2.915v.813z" transform="translate(-161.848 -128.983)"/><path d="m186.1 355.337h.986v.073a.3.3 0 0 0 .091.219.543.543 0 0 0 .4.157.472.472 0 0 0 .328-.115.282.282 0 0 0 .1-.216.307.307 0 0 0 -.167-.263 2.061 2.061 0 0 0 -.431-.185 2.9 2.9 0 0 1 -.9-.482 1.069 1.069 0 0 1 -.361-.859 1.185 1.185 0 0 1 .413-.955 1.531 1.531 0 0 1 1.021-.339 1.512 1.512 0 0 1 .995.324 1.462 1.462 0 0 1 .486.98h-1.025a.415.415 0 0 0 -.46-.415.426.426 0 0 0 -.328.115.3.3 0 0 0 -.085.212.342.342 0 0 0 .191.3 3.787 3.787 0 0 0 .473.2 2.855 2.855 0 0 1 .889.467 1.074 1.074 0 0 1 .349.832 1.147 1.147 0 0 1 -.528 1.025 1.718 1.718 0 0 1 -.959.261 1.757 1.757 0 0 1 -.778-.165 1.2 1.2 0 0 1 -.52-.475 1.318 1.318 0 0 1 -.18-.696z" transform="translate(-163.465 -128.941)"/><path d="m195.018 353.307v.846h1.365v.813h-1.365v.855h1.365v.813h-2.372v-4.141h2.372v.813z" transform="translate(-166.141 -128.983)"/><path d="m199.967 353.307v3.328h-1.008v-3.328h-.959v-.813h2.915v.813z" transform="translate(-167.493 -128.983)"/><path d="m207.188 353.307v3.328h-1.007v-3.328h-.955v-.813h2.915v.813z" transform="translate(-169.937 -128.983)"/><path d="m210.951 353.307v.846h1.365v.813h-1.365v.855h1.365v.813h-2.372v-4.141h2.372v.813z" transform="translate(-171.534 -128.983)"/><path d="m217.29 355.386.595.7a2.573 2.573 0 0 1 -.607.4 2.3 2.3 0 0 1 -.94.191 1.946 1.946 0 0 1 -1.52-.628 2.037 2.037 0 0 1 -.415-.691 2.4 2.4 0 0 1 .048-1.773 2.051 2.051 0 0 1 .54-.748 2.031 2.031 0 0 1 1.374-.464 2.279 2.279 0 0 1 .976.206 2.4 2.4 0 0 1 .591.425l-.643.671a1.347 1.347 0 0 0 -.889-.37 1.055 1.055 0 0 0 -.834.355 1.241 1.241 0 0 0 -.291.846 1.394 1.394 0 0 0 .106.544 1.124 1.124 0 0 0 .3.42 1.159 1.159 0 0 0 .783.276 1.224 1.224 0 0 0 .479-.094 1.037 1.037 0 0 0 .347-.266z" transform="translate(-172.993 -128.941)"/><path d="m221.527 355v1.635h-1.006v-4.141h1.006v1.693h1.362v-1.693h1.011v4.141h-1.007v-1.635z" transform="translate(-175.113 -128.983)"/><path d="m227.818 354.278v2.357h-1.007v-4.141h1.007l1.51 2.327v-2.327h1.008v4.141h-1.008z" transform="translate(-177.242 -128.983)"/><path d="m234.333 352.494v4.141h-1.007v-4.141z" transform="translate(-179.447 -128.983)"/><path d="m240.013 356.289-.719.591-.343-.425a2.374 2.374 0 0 1 -.995.218 2.26 2.26 0 0 1 -1.7-.785 2.012 2.012 0 0 1 -.494-1.347 2.154 2.154 0 0 1 .2-.914 2.185 2.185 0 0 1 .569-.751 2.151 2.151 0 0 1 1.444-.506 2.105 2.105 0 0 1 2.166 2.111 2.339 2.339 0 0 1 -.267 1.089 1.777 1.777 0 0 1 -.221.324zm-1.325-1.51.3.346a1.549 1.549 0 0 0 .139-.634 1.156 1.156 0 0 0 -.363-.864 1.165 1.165 0 0 0 -1.7.094 1.209 1.209 0 0 0 -.279.8 1.194 1.194 0 0 0 .333.858 1.119 1.119 0 0 0 .843.355.926.926 0 0 0 .279-.034l-.27-.328z" transform="translate(-180.271 -128.941)"/><path d="m244.208 352.494v2.411a1.13 1.13 0 0 0 .14.64.587.587 0 0 0 .513.24.7.7 0 0 0 .322-.076.5.5 0 0 0 .22-.2 1.321 1.321 0 0 0 .1-.6v-2.411h1.007v2.369a1.954 1.954 0 0 1 -.431 1.374 1.378 1.378 0 0 1 -.526.355 1.859 1.859 0 0 1 -.687.124 1.927 1.927 0 0 1 -.723-.134 1.478 1.478 0 0 1 -.556-.381 1.322 1.322 0 0 1 -.316-.6 3.424 3.424 0 0 1 -.073-.734v-2.369z" transform="translate(-182.79 -128.983)"/><path d="m250.026 353.307v.846h1.365v.813h-1.365v.855h1.365v.813h-2.371v-4.141h2.372v.813z" transform="translate(-184.759 -128.983)"/><path d="m253.265 355.337h.986v.073a.3.3 0 0 0 .091.219.542.542 0 0 0 .4.157.472.472 0 0 0 .328-.115.284.284 0 0 0 .1-.216.307.307 0 0 0 -.167-.263 2.049 2.049 0 0 0 -.43-.185 2.9 2.9 0 0 1 -.9-.482 1.069 1.069 0 0 1 -.361-.859 1.184 1.184 0 0 1 .412-.955 1.534 1.534 0 0 1 1.022-.339 1.512 1.512 0 0 1 .995.324 1.461 1.461 0 0 1 .485.98h-1.025a.416.416 0 0 0 -.461-.415.425.425 0 0 0 -.327.115.3.3 0 0 0 -.085.212.342.342 0 0 0 .192.3 3.757 3.757 0 0 0 .472.2 2.848 2.848 0 0 1 .889.467 1.075 1.075 0 0 1 .349.832 1.146 1.146 0 0 1 -.527 1.025 1.718 1.718 0 0 1 -.959.261 1.757 1.757 0 0 1 -.778-.165 1.2 1.2 0 0 1 -.521-.475 1.324 1.324 0 0 1 -.18-.696z" transform="translate(-186.195 -128.941)"/><path d="m261.458 356.635v-4.141h1.21a2.678 2.678 0 0 1 1.171.21 1.816 1.816 0 0 1 .8.789 2.174 2.174 0 0 1 .24 1.031 2.32 2.32 0 0 1 -.337 1.243 1.91 1.91 0 0 1 -1.76.868zm1.007-3.334v2.509h.155a1.205 1.205 0 0 0 .816-.277 1.183 1.183 0 0 0 .312-.429 1.345 1.345 0 0 0 .112-.548 1.414 1.414 0 0 0 -.194-.722 1.016 1.016 0 0 0 -.5-.431 1.31 1.31 0 0 0 -.507-.1z" transform="translate(-188.968 -128.983)"/><path d="m268.453 352.494v2.411a1.131 1.131 0 0 0 .14.64.587.587 0 0 0 .513.24.7.7 0 0 0 .323-.076.5.5 0 0 0 .22-.2 1.322 1.322 0 0 0 .1-.6v-2.411h1.008v2.369a1.954 1.954 0 0 1 -.431 1.374 1.373 1.373 0 0 1 -.526.355 1.856 1.856 0 0 1 -.687.124 1.931 1.931 0 0 1 -.724-.134 1.484 1.484 0 0 1 -.556-.381 1.322 1.322 0 0 1 -.316-.6 3.424 3.424 0 0 1 -.073-.734v-2.369z" transform="translate(-190.995 -128.983)"/><path d="m158.731 370.768v11.608h-3.514v-11.608h-3.333v-2.835h10.17v2.835z" transform="translate(-151.884 -134.208)"/><path d="m172.849 376.673v5.7h-3.513v-14.441h3.513v5.9h4.751v-5.9h3.512v14.444h-3.512v-5.7z" transform="translate(-157.79 -134.208)"/><path d="m193.8 368.575v2.952h4.762v2.836h-4.762v2.985h4.762v2.836h-8.272v-14.445h8.274v2.836zm.983-7.122h3.271l-3.2 2.91h-2.177z" transform="translate(-164.882 -132.015)"/><path d="m213.724 378.088h-5.124l-.634 2.1h-3.746l4.78-14.449h4.454l4.752 14.444h-3.852zm-2.624-15.042-1.763 1.317h-2.177l2.507-2.91h2.984l2.325 2.91h-2.176zm1.747 12.206-1.693-5.376-1.682 5.376z" transform="translate(-169.597 -132.015)"/><path d="m231.03 370.768v11.608h-3.514v-11.608h-3.333v-2.835h10.17v2.835z" transform="translate(-176.353 -134.208)"/><path d="m245.148 376.788v5.588h-3.512v-14.444h4.687q3.1 0 4.477 1.279a4.473 4.473 0 0 1 1.334 3.43 4.264 4.264 0 0 1 -2.816 4.412l3.2 5.323h-4.2zm0-1.979h1.123a2.585 2.585 0 0 0 1.544-.413 1.806 1.806 0 0 0 .752-1.566 1.925 1.925 0 0 0 -2.063-2.01h-1.355z" transform="translate(-182.26 -134.208)"/><path d="m263.672 370.768v2.952h4.762v2.836h-4.762v2.985h4.762v2.836h-8.275v-14.445h8.275v2.835z" transform="translate(-188.528 -134.208)"/><path d="m156.921 306.706v4.037h6.51v3.877h-6.51v4.08h6.51v3.877h-11.312v-19.748h11.312v3.877zm1.591-9.722h4.456l-4.355 3.965h-2.966z" transform="translate(-151.964 -110.196)"/><path d="m187.163 319.608 2.837 3.342a12.159 12.159 0 0 1 -2.893 1.9 10.936 10.936 0 0 1 -4.484.911 9.29 9.29 0 0 1 -7.249-2.994 9.794 9.794 0 0 1 -1.981-3.3 11.484 11.484 0 0 1 .23-8.455 9.812 9.812 0 0 1 2.575-3.566 9.7 9.7 0 0 1 6.553-2.214 10.843 10.843 0 0 1 4.659.984 11.367 11.367 0 0 1 2.821 2.026l-3.067 3.2a6.427 6.427 0 0 0 -4.238-1.766 5.037 5.037 0 0 0 -3.979 1.694 5.912 5.912 0 0 0 -1.388 4.036 6.658 6.658 0 0 0 .5 2.6 5.375 5.375 0 0 0 1.419 2 5.53 5.53 0 0 0 3.732 1.317 5.853 5.853 0 0 0 2.285-.449 4.9 4.9 0 0 0 1.668-1.266z" transform="translate(-158.928 -112.986)"/><path d="m211.055 305.206a10.142 10.142 0 0 1 4.108.847 9.989 9.989 0 0 1 3.4 2.437 9.731 9.731 0 0 1 2.634 6.843 10.552 10.552 0 0 1 -.926 4.354 10.4 10.4 0 0 1 -2.6 3.559 9.982 9.982 0 0 1 -6.814 2.5 10.872 10.872 0 0 1 -4.389-.911 10.361 10.361 0 0 1 -3.6-2.575 9.725 9.725 0 0 1 -2.575-6.77 9.921 9.921 0 0 1 .861-4.058 10.783 10.783 0 0 1 2.453-3.465 10.406 10.406 0 0 1 7.448-2.761zm-.376 4.456a5.243 5.243 0 0 0 -4.094 1.9 5.8 5.8 0 0 0 -1.4 3.95 5.607 5.607 0 0 0 1.694 4.2 5.37 5.37 0 0 0 3.892 1.62 5.307 5.307 0 0 0 4.108-1.852 5.749 5.749 0 0 0 1.46-4.022 5.642 5.642 0 0 0 -1.821-4.326 5.441 5.441 0 0 0 -3.84-1.47z" transform="translate(-168.267 -112.979)"/><path d="m241.066 321.689h6.424v3.877h-11.226v-19.747h4.8z" transform="translate(-180.442 -113.186)"/><path d="m260.419 309.7v4.037h6.51v3.877h-6.51v4.079h6.51v3.877h-11.312v-19.751h11.311v3.881z" transform="translate(-186.992 -113.186)"/></g><g fill="#af1210"><path d="m0 0h79.874v3.492h-79.874z" transform="translate(.066)"/><path d="m0 0h79.874v3.492h-79.874z" transform="translate(.066 176.416)"/><path d="m0 0h79.874v3.492h-79.874z" transform="translate(.066 257.788)"/></g></g></svg>